<mxfile host="app.diagrams.net" modified="2023-10-25T11:58:28.829Z" agent="Mozilla/5.0 (Windows NT 10.0; Win64; x64) AppleWebKit/537.36 (KHTML, like Gecko) Chrome/118.0.0.0 Safari/537.36" etag="4AiZFLbA_aoCvHMa2KEF" version="22.0.8" type="device">
  <diagram name="Страница — 1" id="hpWF2FHp2yvNVQH68T0X">
    <mxGraphModel dx="733" dy="608" grid="1" gridSize="10" guides="1" tooltips="1" connect="1" arrows="1" fold="1" page="1" pageScale="1" pageWidth="827" pageHeight="1169" math="0" shadow="0">
      <root>
        <mxCell id="0" />
        <mxCell id="1" parent="0" />
        <mxCell id="61knH06kNng-UKV_1ES9-1" value="замовник" style="rounded=0;whiteSpace=wrap;html=1;" vertex="1" parent="1">
          <mxGeometry x="40" y="70" width="120" height="60" as="geometry" />
        </mxCell>
        <mxCell id="61knH06kNng-UKV_1ES9-2" value="замовлення" style="rounded=0;whiteSpace=wrap;html=1;" vertex="1" parent="1">
          <mxGeometry x="370" y="70" width="120" height="60" as="geometry" />
        </mxCell>
        <mxCell id="61knH06kNng-UKV_1ES9-3" value="ресторан" style="rounded=0;whiteSpace=wrap;html=1;" vertex="1" parent="1">
          <mxGeometry x="370" y="310" width="120" height="60" as="geometry" />
        </mxCell>
        <mxCell id="61knH06kNng-UKV_1ES9-4" value="продукт" style="rounded=0;whiteSpace=wrap;html=1;" vertex="1" parent="1">
          <mxGeometry x="25" y="310" width="120" height="60" as="geometry" />
        </mxCell>
        <mxCell id="61knH06kNng-UKV_1ES9-5" value="здійснює" style="rhombus;whiteSpace=wrap;html=1;" vertex="1" parent="1">
          <mxGeometry x="240" y="60" width="80" height="80" as="geometry" />
        </mxCell>
        <mxCell id="61knH06kNng-UKV_1ES9-8" value="надсилається в" style="rhombus;whiteSpace=wrap;html=1;" vertex="1" parent="1">
          <mxGeometry x="380" y="180" width="100" height="80" as="geometry" />
        </mxCell>
        <mxCell id="61knH06kNng-UKV_1ES9-9" value="" style="endArrow=none;html=1;rounded=0;entryX=0;entryY=0.5;entryDx=0;entryDy=0;exitX=1;exitY=0.5;exitDx=0;exitDy=0;" edge="1" parent="1" source="61knH06kNng-UKV_1ES9-1" target="61knH06kNng-UKV_1ES9-5">
          <mxGeometry width="50" height="50" relative="1" as="geometry">
            <mxPoint x="170" y="200" as="sourcePoint" />
            <mxPoint x="220" y="150" as="targetPoint" />
          </mxGeometry>
        </mxCell>
        <mxCell id="61knH06kNng-UKV_1ES9-10" value="" style="endArrow=none;html=1;rounded=0;entryX=0;entryY=0.5;entryDx=0;entryDy=0;exitX=1;exitY=0.5;exitDx=0;exitDy=0;" edge="1" parent="1" source="61knH06kNng-UKV_1ES9-5" target="61knH06kNng-UKV_1ES9-2">
          <mxGeometry width="50" height="50" relative="1" as="geometry">
            <mxPoint x="310" y="99.5" as="sourcePoint" />
            <mxPoint x="370" y="99.5" as="targetPoint" />
          </mxGeometry>
        </mxCell>
        <mxCell id="61knH06kNng-UKV_1ES9-11" value="" style="endArrow=none;html=1;rounded=0;entryX=0.5;entryY=1;entryDx=0;entryDy=0;exitX=0.5;exitY=0;exitDx=0;exitDy=0;" edge="1" parent="1" source="61knH06kNng-UKV_1ES9-8" target="61knH06kNng-UKV_1ES9-2">
          <mxGeometry width="50" height="50" relative="1" as="geometry">
            <mxPoint x="310" y="170" as="sourcePoint" />
            <mxPoint x="370" y="170" as="targetPoint" />
          </mxGeometry>
        </mxCell>
        <mxCell id="61knH06kNng-UKV_1ES9-12" value="" style="endArrow=none;html=1;rounded=0;" edge="1" parent="1" source="61knH06kNng-UKV_1ES9-3" target="61knH06kNng-UKV_1ES9-8">
          <mxGeometry width="50" height="50" relative="1" as="geometry">
            <mxPoint x="429.5" y="310" as="sourcePoint" />
            <mxPoint x="429.5" y="260" as="targetPoint" />
          </mxGeometry>
        </mxCell>
        <mxCell id="61knH06kNng-UKV_1ES9-13" value="N" style="text;html=1;align=center;verticalAlign=middle;resizable=0;points=[];autosize=1;strokeColor=none;fillColor=none;" vertex="1" parent="1">
          <mxGeometry x="175" y="68" width="30" height="30" as="geometry" />
        </mxCell>
        <mxCell id="61knH06kNng-UKV_1ES9-14" value="M" style="text;html=1;align=center;verticalAlign=middle;resizable=0;points=[];autosize=1;strokeColor=none;fillColor=none;" vertex="1" parent="1">
          <mxGeometry x="340" y="68" width="30" height="30" as="geometry" />
        </mxCell>
        <mxCell id="61knH06kNng-UKV_1ES9-15" value="J" style="text;html=1;align=center;verticalAlign=middle;resizable=0;points=[];autosize=1;strokeColor=none;fillColor=none;" vertex="1" parent="1">
          <mxGeometry x="430" y="130" width="30" height="30" as="geometry" />
        </mxCell>
        <mxCell id="61knH06kNng-UKV_1ES9-16" value="1" style="text;html=1;align=center;verticalAlign=middle;resizable=0;points=[];autosize=1;strokeColor=none;fillColor=none;" vertex="1" parent="1">
          <mxGeometry x="430" y="280" width="30" height="30" as="geometry" />
        </mxCell>
        <mxCell id="61knH06kNng-UKV_1ES9-17" value="готує" style="rhombus;whiteSpace=wrap;html=1;" vertex="1" parent="1">
          <mxGeometry x="200" y="285" width="100" height="110" as="geometry" />
        </mxCell>
        <mxCell id="61knH06kNng-UKV_1ES9-18" value="" style="endArrow=none;html=1;rounded=0;entryX=0;entryY=0.5;entryDx=0;entryDy=0;exitX=1;exitY=0.5;exitDx=0;exitDy=0;" edge="1" parent="1" source="61knH06kNng-UKV_1ES9-17" target="61knH06kNng-UKV_1ES9-3">
          <mxGeometry width="50" height="50" relative="1" as="geometry">
            <mxPoint x="320" y="400" as="sourcePoint" />
            <mxPoint x="320" y="350" as="targetPoint" />
          </mxGeometry>
        </mxCell>
        <mxCell id="61knH06kNng-UKV_1ES9-19" value="" style="endArrow=none;html=1;rounded=0;entryX=0;entryY=0.5;entryDx=0;entryDy=0;" edge="1" parent="1" source="61knH06kNng-UKV_1ES9-4">
          <mxGeometry width="50" height="50" relative="1" as="geometry">
            <mxPoint x="150" y="340" as="sourcePoint" />
            <mxPoint x="200" y="339.5" as="targetPoint" />
          </mxGeometry>
        </mxCell>
        <mxCell id="61knH06kNng-UKV_1ES9-20" value="1" style="text;html=1;align=center;verticalAlign=middle;resizable=0;points=[];autosize=1;strokeColor=none;fillColor=none;" vertex="1" parent="1">
          <mxGeometry x="340" y="310" width="30" height="30" as="geometry" />
        </mxCell>
        <mxCell id="61knH06kNng-UKV_1ES9-21" value="V" style="text;html=1;align=center;verticalAlign=middle;resizable=0;points=[];autosize=1;strokeColor=none;fillColor=none;" vertex="1" parent="1">
          <mxGeometry x="145" y="308" width="30" height="30" as="geometry" />
        </mxCell>
        <mxCell id="61knH06kNng-UKV_1ES9-22" value="відправляєтся" style="rhombus;whiteSpace=wrap;html=1;" vertex="1" parent="1">
          <mxGeometry x="30" y="180" width="110" height="80" as="geometry" />
        </mxCell>
        <mxCell id="61knH06kNng-UKV_1ES9-23" value="" style="endArrow=none;html=1;rounded=0;entryX=0.358;entryY=1.05;entryDx=0;entryDy=0;exitX=0.5;exitY=0;exitDx=0;exitDy=0;entryPerimeter=0;" edge="1" parent="1" source="61knH06kNng-UKV_1ES9-22" target="61knH06kNng-UKV_1ES9-1">
          <mxGeometry width="50" height="50" relative="1" as="geometry">
            <mxPoint x="170" y="110" as="sourcePoint" />
            <mxPoint x="250" y="110" as="targetPoint" />
          </mxGeometry>
        </mxCell>
        <mxCell id="61knH06kNng-UKV_1ES9-24" value="" style="endArrow=none;html=1;rounded=0;entryX=0.5;entryY=1;entryDx=0;entryDy=0;exitX=0.5;exitY=0;exitDx=0;exitDy=0;" edge="1" parent="1" source="61knH06kNng-UKV_1ES9-4" target="61knH06kNng-UKV_1ES9-22">
          <mxGeometry width="50" height="50" relative="1" as="geometry">
            <mxPoint x="95" y="190" as="sourcePoint" />
            <mxPoint x="93" y="143" as="targetPoint" />
          </mxGeometry>
        </mxCell>
        <mxCell id="61knH06kNng-UKV_1ES9-25" value="F" style="text;html=1;align=center;verticalAlign=middle;resizable=0;points=[];autosize=1;strokeColor=none;fillColor=none;" vertex="1" parent="1">
          <mxGeometry x="85" y="280" width="30" height="30" as="geometry" />
        </mxCell>
        <mxCell id="61knH06kNng-UKV_1ES9-26" value="G" style="text;html=1;align=center;verticalAlign=middle;resizable=0;points=[];autosize=1;strokeColor=none;fillColor=none;" vertex="1" parent="1">
          <mxGeometry x="95" y="130" width="30" height="30" as="geometry" />
        </mxCell>
      </root>
    </mxGraphModel>
  </diagram>
</mxfile>
